<?xml version="1.0" standalone="no"?>
<!DOCTYPE svg PUBLIC "-//W3C//DTD SVG 20010904//EN"
 "http://www.w3.org/TR/2001/REC-SVG-20010904/DTD/svg10.dtd">
<svg version="1.0" xmlns="http://www.w3.org/2000/svg"
 width="874.000000pt" height="874.000000pt" viewBox="0 0 874.000000 874.000000"
 preserveAspectRatio="xMidYMid meet">
<metadata>
Created by potrace 1.14, written by Peter Selinger 2001-2017
</metadata>
<g transform="translate(0.000000,874.000000) scale(0.100000,-0.100000)"
fill="#000000" stroke="none">
<path d="M1770 8395 c-7 -8 -16 -15 -21 -15 -9 0 -44 -27 -80 -62 -9 -9 -20
-14 -23 -10 -3 3 -6 0 -6 -6 0 -7 -4 -12 -9 -12 -5 0 -46 -36 -91 -80 -45 -44
-84 -80 -86 -80 -11 0 -102 -98 -97 -104 4 -3 -1 -6 -10 -6 -9 0 -17 -4 -17
-9 0 -5 -17 -27 -37 -49 -52 -55 -112 -122 -109 -122 1 0 -25 -28 -58 -63 -73
-76 -108 -117 -100 -117 3 0 -1 -6 -8 -14 -7 -8 -21 -25 -31 -38 -9 -14 -33
-42 -53 -64 -66 -73 -97 -112 -93 -118 2 -3 -6 -13 -18 -21 -13 -9 -23 -23
-23 -31 0 -8 -4 -13 -9 -9 -9 5 -27 -32 -23 -47 1 -5 -2 -8 -7 -8 -5 0 -13
-10 -17 -22 -4 -13 -24 -50 -45 -83 -22 -33 -39 -64 -38 -68 0 -5 -10 -17 -22
-28 -12 -10 -19 -19 -15 -19 4 0 -4 -15 -17 -32 -37 -51 -99 -177 -92 -188 3
-6 2 -10 -3 -10 -5 0 -15 -15 -23 -32 -7 -18 -16 -35 -20 -38 -7 -5 -52 -99
-55 -115 -1 -5 -3 -14 -4 -20 -2 -5 -4 -14 -5 -20 -5 -29 -20 -75 -35 -115
-30 -76 -33 -85 -31 -93 0 -4 -6 -21 -14 -37 -9 -16 -15 -32 -15 -35 -1 -8
-11 -36 -36 -95 -27 -66 -35 -98 -40 -165 -2 -27 -6 -61 -10 -75 -14 -59 -17
-119 -16 -355 2 -284 8 -450 17 -465 3 -5 2 -10 -2 -10 -9 0 -8 -108 1 -117 2
-3 1 -15 -4 -28 -5 -14 -5 -26 3 -34 6 -6 7 -11 1 -11 -5 0 -8 -39 -8 -92 2
-85 4 -92 24 -100 19 -7 22 -13 17 -44 -5 -30 -2 -39 25 -62 17 -15 43 -54 58
-88 26 -57 79 -118 172 -199 19 -16 47 -49 62 -72 14 -24 33 -43 42 -43 21 0
68 -44 107 -100 32 -46 58 -74 96 -100 11 -8 21 -22 21 -32 0 -9 9 -20 20 -23
12 -4 28 -24 38 -45 13 -32 22 -40 47 -42 27 -3 30 -7 35 -44 3 -28 17 -56 40
-84 42 -50 60 -83 64 -113 6 -50 19 -77 36 -77 26 0 28 -6 31 -85 1 -39 6 -76
12 -82 5 -7 7 -13 3 -13 -7 0 23 -80 37 -98 12 -15 18 -44 17 -85 0 -16 9 -49
20 -74 11 -25 20 -50 20 -56 0 -5 12 -35 26 -65 20 -41 26 -70 25 -118 0 -47
4 -66 15 -72 12 -7 16 -40 20 -173 l4 -164 -27 -31 c-16 -17 -38 -37 -50 -43
-13 -6 -23 -20 -23 -30 0 -15 -11 -19 -57 -24 -32 -3 -69 -9 -83 -12 -47 -11
-695 -6 -695 5 0 5 -90 10 -247 13 l-168 4 0 -1058 0 -1059 1084 0 1084 0 -2
52 c-2 29 -8 54 -15 56 -6 2 -11 12 -11 23 0 10 -6 19 -12 19 -8 0 -14 14 -15
33 -6 120 -7 110 22 227 17 68 19 155 4 195 -6 17 -24 58 -40 91 -16 34 -32
72 -34 85 -12 64 -19 86 -32 112 -8 16 -16 62 -18 103 -3 41 -8 80 -12 87 -4
7 -8 14 -9 17 -1 3 -7 21 -15 40 -7 19 -12 38 -11 43 1 4 -2 7 -7 7 -15 0 11
72 36 103 13 16 23 26 23 23 0 -2 12 1 26 9 44 22 111 4 144 -39 13 -18 49
-46 80 -61 30 -16 60 -33 65 -40 6 -6 33 -26 60 -45 52 -35 225 -205 304 -300
57 -68 68 -81 134 -151 28 -31 72 -80 97 -109 58 -68 79 -88 102 -96 10 -3 18
-10 18 -15 0 -6 5 -7 10 -4 6 3 10 2 10 -3 0 -5 14 -15 31 -23 18 -7 49 -30
71 -51 21 -21 42 -38 46 -38 4 0 13 -9 20 -20 7 -11 19 -20 27 -20 8 0 15 -5
15 -12 0 -6 3 -9 6 -5 3 3 27 -1 52 -9 26 -9 54 -16 62 -18 92 -14 183 -58
204 -98 10 -19 31 -40 47 -47 16 -7 27 -16 24 -20 -8 -14 24 -48 69 -75 l45
-26 1986 0 1986 0 -36 66 c-19 37 -39 72 -44 78 -5 6 -11 17 -13 25 -2 8 -10
23 -18 33 -8 10 -15 22 -15 27 0 11 -157 235 -167 239 -5 2 -6 8 -2 13 3 5 0
9 -5 9 -6 0 -11 7 -11 15 0 8 -4 15 -10 15 -5 0 -14 18 -20 39 -7 28 -20 46
-44 61 -22 13 -37 31 -40 48 -5 30 -1 95 7 109 3 5 -14 43 -38 84 -25 41 -45
80 -45 87 0 6 -4 12 -10 12 -5 0 -10 5 -10 10 0 6 -11 27 -23 48 -13 20 -46
80 -74 132 -48 91 -66 123 -115 208 -12 20 -28 49 -35 64 -8 16 -20 28 -26 28
-7 0 -6 4 3 10 12 8 12 10 1 10 -8 0 -12 2 -9 5 3 3 0 30 -7 59 -7 30 -9 60
-4 67 4 7 5 17 3 21 -3 4 0 8 6 8 6 0 -4 15 -23 33 -36 33 -37 35 -37 66 0 11
-7 26 -15 35 -19 18 -16 39 7 48 9 4 19 20 23 37 4 17 11 29 16 25 5 -3 9 0 9
5 0 6 15 21 34 33 18 12 44 38 57 57 13 20 26 38 30 41 3 3 8 12 12 20 4 8 18
33 32 55 45 72 50 102 30 179 -4 16 -8 70 -8 120 1 58 -4 99 -12 112 -7 11
-16 36 -19 54 -2 18 -9 36 -13 39 -5 3 -24 27 -42 52 -28 40 -32 53 -30 100 2
44 -3 66 -30 119 -33 66 -40 93 -46 188 -2 29 -9 59 -15 67 -14 16 -20 105 -8
105 4 0 8 5 8 11 0 18 46 56 94 77 49 22 110 77 120 110 4 12 11 21 15 19 14
-4 115 117 198 238 16 22 36 49 45 59 10 11 24 32 30 48 7 15 16 28 20 28 5 0
8 8 8 19 0 10 7 24 15 31 8 7 15 19 15 26 0 8 4 14 9 14 5 0 21 30 37 68 15
37 32 73 38 80 5 8 11 43 12 78 3 75 10 101 33 124 27 29 57 40 106 40 41 0
50 -5 90 -45 25 -24 45 -52 45 -62 0 -35 81 -177 128 -224 54 -55 101 -111
154 -183 21 -28 42 -56 48 -63 5 -7 10 -19 10 -27 0 -8 4 -16 9 -18 4 -1 32
-52 61 -113 30 -60 65 -128 79 -150 23 -35 32 -55 33 -75 6 -82 -59 -151 -137
-144 -33 3 -58 -12 -48 -30 3 -6 3 -8 -2 -4 -4 4 -22 -9 -39 -29 -17 -21 -41
-47 -52 -60 -12 -12 -19 -24 -16 -27 3 -3 1 -6 -5 -6 -6 0 -28 -16 -49 -35
-22 -19 -43 -35 -49 -35 -5 0 -22 -18 -37 -39 -20 -28 -28 -54 -31 -98 -4 -52
-19 -97 -38 -113 -26 -22 -80 -108 -98 -158 -13 -34 -27 -62 -32 -62 -5 0 -9
-7 -9 -15 0 -9 -7 -29 -15 -45 -8 -15 -18 -52 -21 -82 -9 -73 -9 -72 -16 -83
-3 -5 -6 -36 -6 -69 0 -44 7 -71 28 -110 32 -62 60 -142 52 -150 -3 -3 -1 -6
4 -6 5 0 10 -10 11 -22 1 -11 6 -24 11 -27 11 -7 43 -113 49 -161 2 -19 9 -40
15 -47 6 -8 8 -16 5 -19 -13 -13 25 -92 51 -105 15 -8 36 -23 47 -35 11 -11
28 -23 38 -27 9 -3 17 -15 17 -26 0 -35 12 -51 46 -66 19 -8 34 -21 34 -29 0
-33 24 -65 61 -82 22 -9 38 -19 36 -21 -2 -2 55 -62 127 -134 173 -172 170
-169 184 -169 7 0 12 -5 12 -11 0 -5 4 -8 9 -4 6 3 13 0 18 -7 10 -16 76 -50
89 -47 19 6 82 -12 94 -26 7 -8 16 -15 21 -15 5 0 9 799 9 1858 0 1839 0 1858
-20 1895 -11 20 -17 37 -13 37 5 0 3 4 -2 8 -6 4 -25 26 -44 50 -78 101 -153
161 -288 232 -46 24 -83 47 -83 50 0 3 -16 12 -35 20 -19 8 -35 18 -35 24 0 5
-3 7 -6 3 -4 -3 -21 4 -38 17 -40 30 -111 66 -131 66 -8 0 -15 4 -15 9 0 5
-10 13 -22 17 -24 7 -121 73 -126 86 -2 5 -10 8 -18 8 -8 0 -14 5 -14 10 0 6
-22 10 -48 10 -60 0 -71 11 -65 61 5 35 3 40 -27 56 -38 21 -80 60 -80 73 0 6
-7 10 -15 10 -8 0 -15 7 -15 15 0 7 -6 18 -13 22 -18 11 -60 73 -50 73 4 0 0
5 -9 11 -10 5 -18 17 -18 24 0 8 -4 15 -8 15 -5 0 -15 12 -23 28 -8 15 -16 29
-19 32 -3 3 -20 34 -39 70 -78 149 -119 237 -125 273 -4 20 -10 37 -14 37 -4
0 -9 14 -10 31 -1 18 -6 37 -10 43 -4 6 -7 13 -8 16 -1 6 -22 59 -33 85 -15
33 -25 59 -26 70 -2 11 -10 32 -35 90 -9 22 -16 43 -16 47 1 4 -8 14 -19 23
-11 9 -13 13 -5 9 10 -5 9 0 -4 14 -11 12 -15 22 -10 22 5 0 4 4 -1 8 -10 6
-38 63 -36 70 1 1 -4 9 -11 17 -31 34 -36 43 -31 49 4 3 2 6 -4 6 -9 0 -105
181 -107 202 -1 4 -7 13 -13 20 -7 6 -13 18 -13 25 0 7 -4 13 -10 13 -5 0 -7
6 -4 13 2 7 -20 62 -51 123 -30 60 -55 115 -55 122 0 7 -4 20 -9 30 -8 15 -28
72 -35 97 -5 17 -17 48 -37 92 -10 24 -19 45 -19 48 0 2 -11 29 -25 60 -14 30
-36 80 -50 110 -14 31 -25 60 -25 65 0 6 -4 10 -10 10 -5 0 -10 7 -10 15 0 8
-4 15 -10 15 -5 0 -10 6 -10 14 0 7 -7 19 -15 26 -9 7 -22 27 -31 45 -8 18
-24 42 -34 53 -11 12 -20 25 -20 31 0 13 -110 103 -197 162 l-72 49 -2189 0
c-1934 0 -2191 -2 -2202 -15z"/>
<path d="M8420 7462 c-33 -11 -33 -56 0 -65 28 -7 48 10 43 37 -5 27 -19 36
-43 28z"/>
<path d="M8446 7181 c-4 -7 -5 -15 -2 -18 9 -9 19 4 14 18 -4 11 -6 11 -12 0z"/>
<path d="M20 4162 c0 -6 9 -12 20 -15 26 -7 26 -1 0 13 -11 6 -20 7 -20 2z"/>
<path d="M640 3635 c-5 -6 2 -10 21 -10 16 -1 29 4 29 10 0 14 -38 14 -50 0z"/>
<path d="M7227 3371 c-3 -13 -1 -18 9 -14 7 2 10 11 7 19 -7 19 -10 18 -16 -5z"/>
<path d="M958 2683 c7 -3 16 -2 19 1 4 3 -2 6 -13 5 -11 0 -14 -3 -6 -6z"/>
</g>
</svg>
